HIERARCHY
ROOT Hips
{
	OFFSET -13.091600 -28.302996 44.698402
	CHANNELS 6 Xposition Yposition Zposition Zrotation Xrotation Yrotation
	JOINT Chest
	{
		OFFSET -0.673000 0.623899 5.369202
		CHANNELS 6 Xposition Yposition Zposition Zrotation Xrotation Yrotation
		JOINT Chest2
		{
			OFFSET 0.000000 0.000000 4.415001
			CHANNELS 6 Xposition Yposition Zposition Zrotation Xrotation Yrotation
			JOINT Neck
			{
				OFFSET 0.000000 0.000002 10.273300
				CHANNELS 6 Xposition Yposition Zposition Zrotation Xrotation Yrotation
				JOINT Head
				{
					OFFSET 0.000000 0.000000 2.173897
					CHANNELS 6 Xposition Yposition Zposition Zrotation Xrotation Yrotation
					End Site
					{
						OFFSET 0.000000 0.000000 9.961800
					}
				}
			}
			JOINT LeftCollar
			{
				OFFSET 2.359900 -0.565201 5.928101
				CHANNELS 6 Xposition Yposition Zposition Zrotation Xrotation Yrotation
				JOINT LeftShoulder
				{
					OFFSET 5.443700 0.000000 0.000000
					CHANNELS 6 Xposition Yposition Zposition Zrotation Xrotation Yrotation
					JOINT LeftElbow
					{
						OFFSET 0.000000 0.000000 -10.615799
						CHANNELS 6 Xposition Yposition Zposition Zrotation Xrotation Yrotation
						JOINT LeftWrist
						{
							OFFSET 0.000000 -0.000002 -13.110302
							CHANNELS 6 Xposition Yposition Zposition Zrotation Xrotation Yrotation
							End Site
							{
								OFFSET 0.000000 0.000000 -2.173901
							}
						}
					}
				}
			}
			JOINT RightCollar
			{
				OFFSET -2.636600 -1.718800 6.889698
				CHANNELS 6 Xposition Yposition Zposition Zrotation Xrotation Yrotation
				JOINT RightShoulder
				{
					OFFSET -4.139101 0.000000 0.000000
					CHANNELS 6 Xposition Yposition Zposition Zrotation Xrotation Yrotation
					JOINT RightElbow
					{
						OFFSET 0.000000 0.000000 -10.471802
						CHANNELS 6 Xposition Yposition Zposition Zrotation Xrotation Yrotation
						JOINT RightWrist
						{
							OFFSET 0.000000 0.000000 -12.281898
							CHANNELS 6 Xposition Yposition Zposition Zrotation Xrotation Yrotation
							End Site
							{
								OFFSET 0.000000 -0.000002 -2.173901
							}
						}
					}
				}
			}
		}
	}
	JOINT LeftHip
	{
		OFFSET 2.273400 0.176701 -2.518002
		CHANNELS 6 Xposition Yposition Zposition Zrotation Xrotation Yrotation
		JOINT LeftKnee
		{
			OFFSET 0.000000 -0.000002 -20.456402
			CHANNELS 6 Xposition Yposition Zposition Zrotation Xrotation Yrotation
			JOINT LeftAnkle
			{
				OFFSET 0.000000 -0.000002 -16.635300
				CHANNELS 6 Xposition Yposition Zposition Zrotation Xrotation Yrotation
				End Site
				{
					OFFSET 0.000000 -8.812399 0.000001
				}
			}
		}
	}
	JOINT RightHip
	{
		OFFSET -1.914800 0.018101 -2.699299
		CHANNELS 6 Xposition Yposition Zposition Zrotation Xrotation Yrotation
		JOINT RightKnee
		{
			OFFSET 0.000000 -0.000002 -20.148901
			CHANNELS 6 Xposition Yposition Zposition Zrotation Xrotation Yrotation
			JOINT RightAnkle
			{
				OFFSET 0.000000 -0.000002 -16.838301
				CHANNELS 6 Xposition Yposition Zposition Zrotation Xrotation Yrotation
				End Site
				{
					OFFSET 0.000000 -8.328398 0.000001
				}
			}
		}
	}
}
MOTION
Frames: 8
Frame Time: 0.041667
-39.242500 -7.189392 37.052505 720.313444 22.461849 6.544862 -0.673007 0.623896 5.369210 2.836975 33.397870 5.431450 0.000002 -0.000002 4.415005 0.663110 -1.923472 0.362487 -0.000004 -0.000001 10.273304 6.596764 18.337391 11.600361 0.000005 -0.000001 2.173896 -0.361119 0.160158 0.468215 2.359897 -0.565204 5.928095 -0.499070 3.154037 4.686715 5.443699 -0.000002 -0.000002 -61.599352 2.723027 -52.223428 -0.000000 -0.000003 -10.615794 551.748746 -184.748489 179.795140 0.000006 -0.000001 -13.110295 -69.269429 -179.293135 202.177957 -2.636602 -1.718802 6.889694 213.181597 -194.853563 165.473463 -4.139095 0.000000 0.000005 28.596875 -404.604451 54.296787 -0.000004 -0.000005 -10.471795 -35.301631 -3.853276 -361.802497 -0.000006 -0.000004 -12.281899 339.151841 -3.808209 -2.883423 2.273391 0.176702 -2.518004 -79.535210 -131.661745 -95.433561 -0.000003 -0.000001 -20.456400 55.531709 139.529304 -103.158840 0.000000 0.000002 -16.635296 46.961584 14.844047 25.695488 -1.914806 0.018102 -2.699302 173.323126 182.678259 185.096146 -0.000004 -0.000002 -20.148901 2.915936 44.633415 -11.828045 0.000000 -0.000005 -16.838299 -25.970686 1.696930 -1.274143
-39.373497 -6.661297 37.148705 720.281369 20.202798 5.921248 -0.673003 0.623893 5.369207 2.463362 32.705053 4.922063 -0.000002 -0.000003 4.415010 1.810431 -1.600971 0.525147 -0.000006 -0.000004 10.273302 5.982024 19.767298 11.774840 0.000003 0.000001 2.173898 -0.346906 0.611030 0.563476 2.359897 -0.565203 5.928101 0.312611 2.621977 4.444200 5.443690 -0.000009 0.000002 -63.621074 8.954097 -44.776111 -0.000001 -0.000004 -10.615790 547.306118 -184.486866 180.546051 0.000003 0.000002 -13.110299 -58.449310 -181.268125 199.949034 -2.636603 -1.718809 6.889697 209.341801 -191.099076 165.110165 -4.139097 -0.000006 0.000000 26.112237 -393.244836 51.258292 -0.000003 -0.000001 -10.471797 -33.103174 -2.012879 -359.739998 -0.000004 -0.000002 -12.281889 331.903781 0.300103 -0.553178 2.273395 0.176706 -2.518010 -82.097542 -132.255221 -98.833418 0.000008 0.000000 -20.456398 56.468370 138.801397 -104.922613 -0.000006 -0.000001 -16.635296 46.583120 16.040544 25.415057 -1.914804 0.018101 -2.699301 175.957721 180.907409 185.635594 -0.000003 -0.000001 -20.148903 4.807680 44.168883 -14.243826 -0.000005 -0.000003 -16.838301 -29.532983 1.270276 -1.717455
-39.513695 -6.118992 37.276203 719.978218 18.000462 5.383795 -0.673001 0.623893 5.369209 2.363508 31.934157 4.433154 -0.000002 0.000000 4.415011 3.028801 -1.246190 0.704764 0.000000 -0.000004 10.273294 5.180745 21.044508 11.869393 -0.000005 0.000000 2.173901 -0.272868 1.036248 0.613540 2.359897 -0.565201 5.928100 1.310857 2.126499 4.206804 5.443697 0.000000 -0.000005 -65.437939 13.821037 -37.333394 0.000001 -0.000007 -10.615795 544.967133 -183.853871 181.351795 0.000000 0.000000 -13.110297 -51.357429 -182.292339 197.996515 -2.636600 -1.718801 6.889700 204.751217 -184.476689 165.032274 -4.139093 0.000001 0.000000 23.228717 -379.264039 47.369677 -0.000003 -0.000000 -10.471799 -31.433815 -0.987931 -358.765194 -0.000005 -0.000005 -12.281897 325.639104 4.379255 1.957896 2.273394 0.176709 -2.518002 -84.498934 -132.832604 -102.329662 0.000001 -0.000009 -20.456400 58.135421 137.643980 -107.258197 -0.000005 -0.000000 -16.635300 45.756206 17.311186 24.783705 -1.914802 0.018105 -2.699297 178.975859 179.052057 185.940111 -0.000002 -0.000004 -20.148903 1.759995 43.938931 -13.518794 0.000001 -0.000006 -16.838301 -29.583677 0.958704 -1.855824
-39.668900 -5.558697 37.441204 719.975486 15.737610 4.647685 -0.672999 0.623892 5.369215 1.958431 31.296067 4.060217 0.000004 -0.000001 4.415006 4.266824 -0.886212 0.891791 -0.000005 -0.000013 10.273304 4.174531 22.207377 12.020281 0.000002 -0.000000 2.173902 -0.095109 1.371400 0.586111 2.359896 -0.565208 5.928102 2.396902 1.728101 3.505048 5.443691 -0.000003 -0.000003 -66.893753 17.362098 -30.006476 -0.000000 -0.000003 -10.615790 543.759665 -183.196233 181.990691 0.000001 0.000002 -13.110295 -46.486957 -182.965236 195.321581 -2.636604 -1.718811 6.889703 200.144815 -181.302467 164.806987 -4.139098 -0.000006 0.000004 21.684999 -369.049054 45.829671 -0.000008 -0.000007 -10.471802 -29.695948 -0.429389 -358.468600 -0.000000 -0.000008 -12.281900 320.580584 7.972872 4.671846 2.273400 0.176706 -2.517997 -87.441332 -133.534132 -106.248162 -0.000005 -0.000003 -20.456396 60.927500 135.895493 -110.466623 -0.000006 -0.000000 -16.635300 44.154817 18.822038 23.563403 -1.914798 0.018096 -2.699293 181.533943 177.029242 186.120838 0.000003 -0.000005 -20.148899 -1.256242 43.414653 -12.638393 -0.000002 -0.000002 -16.838301 -29.522519 0.727166 -1.990504
-39.834099 -4.971889 37.652401 719.982371 13.248272 3.885534 -0.673002 0.623893 5.369207 1.573775 30.938295 3.721440 -0.000000 0.000002 4.415008 5.474765 -0.558279 1.073996 -0.000001 -0.000006 10.273302 3.091165 23.314639 12.207490 0.000004 -0.000003 2.173902 0.158996 1.645030 0.523918 2.359897 -0.565205 5.928098 3.580955 1.459814 2.648409 5.443692 0.000003 -0.000002 -68.141799 20.474634 -23.121307 0.000003 -0.000002 -10.615796 543.075226 -182.717300 182.608782 0.000004 0.000002 -13.110294 -42.977377 -183.377534 194.059266 -2.636601 -1.718808 6.889699 196.656350 -182.008026 164.629429 -4.139097 -0.000006 -0.000000 19.709216 -363.613262 46.534902 -0.000003 -0.000001 -10.471795 -27.994353 -0.071033 -358.480402 -0.000008 -0.000002 -12.281905 316.496076 11.475713 7.706845 2.273399 0.176698 -2.518003 -90.940608 -134.245579 -110.904725 -0.000001 -0.000004 -20.456400 65.640365 133.306619 -115.092745 -0.000005 -0.000000 -16.635298 41.423687 20.536058 21.660458 -1.914800 0.018101 -2.699297 184.087395 174.672225 186.094241 0.000006 -0.000002 -20.148907 0.972776 41.898870 -14.934945 -0.000001 -0.000003 -16.838301 -33.430692 0.705757 -2.606207
-40.009998 -4.343393 37.912201 719.733807 11.362472 3.269928 -0.673001 0.623894 5.369209 1.473992 30.038284 3.263865 -0.000001 -0.000001 4.415007 6.567506 -0.283164 1.228114 -0.000000 0.000005 10.273300 1.949563 24.420875 12.586702 -0.000003 0.000007 2.173899 0.552848 1.816675 0.529625 2.359899 -0.565196 5.928102 4.816427 1.243867 1.752920 5.443699 0.000002 0.000009 -68.956743 23.574915 -16.840508 -0.000000 -0.000005 -10.615795 542.522472 -182.353237 183.141714 0.000000 0.000000 -13.110298 -39.642712 -184.436472 191.690857 -2.636601 -1.718799 6.889701 191.663591 -177.012644 164.814145 -4.139102 -0.000005 0.000003 17.185388 -353.762681 46.120381 0.000001 -0.000006 -10.471804 -26.210424 0.244665 -358.428848 0.000004 0.000000 -12.281901 313.716135 14.130889 10.256503 2.273402 0.176696 -2.518002 -93.696603 -135.006284 -114.924736 0.000003 -0.000003 -20.456400 72.672038 130.455971 -121.624086 -0.000004 -0.000002 -16.635300 37.724880 22.675204 18.880105 -1.914798 0.018102 -2.699290 187.858807 172.582679 185.732337 -0.000003 -0.000002 -20.148903 -0.527243 40.076231 -15.632005 0.000004 -0.000003 -16.838299 -35.366720 0.672965 -3.178349
-40.197304 -3.667994 38.219009 719.404974 9.709304 2.766971 -0.673002 0.623895 5.369207 1.540894 29.007810 2.644345 -0.000002 0.000001 4.415006 7.769785 -0.086063 1.428840 -0.000000 -0.000005 10.273304 0.726038 25.567358 12.996948 0.000000 0.000000 2.173893 0.912046 1.922386 0.586735 2.359901 -0.565199 5.928100 6.268711 2.150901 0.705401 5.443687 -0.000003 0.000004 -69.247688 26.395941 -12.291541 0.000004 -0.000007 -10.615796 541.833989 -182.233982 183.290817 0.000000 0.000000 -13.110300 -36.572132 -185.656986 189.012221 -2.636606 -1.718802 6.889705 187.479431 -174.710543 165.178645 -4.139100 -0.000003 -0.000000 14.594345 -347.246981 47.771009 0.000001 0.000004 -10.471804 -24.747768 0.476877 -358.437481 -0.000004 -0.000003 -12.281893 311.112002 16.951432 13.163417 2.273395 0.176700 -2.518002 -96.999157 -135.232719 -119.423276 0.000000 -0.000003 -20.456398 84.434136 127.284660 -131.597828 -0.000006 -0.000007 -16.635296 32.201378 25.495076 15.414810 -1.914804 0.018100 -2.699292 190.529110 171.026912 185.319862 -0.000004 -0.000003 -20.148901 -1.877954 38.405433 -15.848132 0.000001 -0.000004 -16.838303 -36.732631 0.734953 -3.546076
-40.394600 -2.943489 38.563408 718.990354 8.320730 2.331220 -0.673006 0.623895 5.369210 1.749865 27.851438 1.950216 0.000000 -0.000000 4.415010 8.552067 -0.037757 1.481375 -0.000002 0.000004 10.273299 -0.055352 26.759319 13.564381 -0.000004 -0.000002 2.173903 1.225247 1.965029 0.647635 2.359897 -0.565200 5.928094 7.531968 2.399713 -0.154839 5.443690 0.000000 -0.000008 -68.324582 30.106624 -8.367138 -0.000001 -0.000003 -10.615798 540.837984 -182.058815 183.580404 0.000004 0.000003 -13.110294 -33.574396 -186.744475 186.392734 -2.636609 -1.718801 6.889698 184.928929 -173.047269 166.093125 -4.139098 -0.000002 -0.000003 11.158993 -342.220454 50.663085 -0.000000 0.000002 -10.471796 -23.848037 0.646432 -358.408658 0.000006 -0.000002 -12.281900 309.215395 19.418827 15.693207 2.273391 0.176701 -2.518000 -99.870186 -135.702799 -123.633814 0.000005 -0.000001 -20.456400 100.057395 125.404104 -144.853832 -0.000005 0.000002 -16.635302 25.219405 29.174245 11.294181 -1.914808 0.018102 -2.699293 192.719388 169.859264 184.895366 -0.000001 -0.000005 -20.148903 -3.217163 36.713377 -15.882758 0.000002 -0.000005 -16.838303 -37.768511 0.832819 -3.857403
